<?xml version="1.0" standalone="no"?>
<!DOCTYPE svg PUBLIC "-//W3C//DTD SVG 20010904//EN"
 "http://www.w3.org/TR/2001/REC-SVG-20010904/DTD/svg10.dtd">
<svg version="1.0" xmlns="http://www.w3.org/2000/svg"
 width="260.000000pt" height="260.000000pt" viewBox="0 0 260.000000 260.000000"
 preserveAspectRatio="xMidYMid meet">
<metadata>
Created by potrace 1.11, written by Peter Selinger 2001-2013
</metadata>
<g transform="translate(0.000000,260.000000) scale(0.100000,-0.100000)"
fill="#000000" stroke="none">
<path d="M0 1300 l0 -1300 1300 0 1300 0 0 1300 0 1300 -1300 0 -1300 0 0
-1300z m838 18 c2 -18 -5 -34 -25 -52 l-28 -26 28 0 c15 0 27 -4 27 -10 0 -5
-13 -10 -30 -10 -37 0 -39 19 -5 56 14 15 25 33 25 40 0 21 -40 17 -41 -3 0
-11 -2 -13 -6 -5 -9 23 6 44 29 40 16 -2 24 -11 26 -30z m82 18 c10 -13 7 -15
-16 -13 -15 1 -29 -3 -31 -10 -3 -7 3 -10 15 -7 39 11 57 -57 20 -79 -24 -16
-48 9 -48 50 0 62 31 93 60 59z m80 -5 c26 -49 -1 -127 -37 -105 -22 13 -30
88 -12 110 16 20 36 18 49 -5z m158 -13 c2 -18 -5 -34 -25 -52 l-28 -26 28 0
c15 0 27 -4 27 -10 0 -5 -13 -10 -30 -10 -37 0 -39 19 -5 56 14 15 25 33 25
40 0 21 -40 17 -41 -3 0 -11 -2 -13 -6 -5 -9 23 6 44 29 40 16 -2 24 -11 26
-30z m82 18 c10 -13 7 -15 -16 -13 -15 1 -29 -3 -31 -10 -3 -7 3 -10 15 -7 39
11 57 -57 20 -79 -24 -16 -48 9 -48 50 0 62 31 93 60 59z m90 -5 c26 -49 -1
-127 -37 -105 -22 13 -30 88 -12 110 16 20 36 18 49 -5z m-272 -24 c6 10 14
15 18 11 4 -4 1 -15 -6 -23 -10 -12 -10 -21 -1 -42 14 -31 6 -44 -12 -18 -13
16 -14 16 -20 1 -4 -9 -12 -16 -18 -16 -7 0 -5 9 5 25 12 19 14 30 6 44 -14
28 -12 39 4 18 14 -18 15 -18 24 0z m439 -64 c-2 -16 -4 -3 -4 27 0 30 2 43 4
28 2 -16 2 -40 0 -55z m81 52 c2 -15 1 -17 -6 -6 -14 19 -42 6 -42 -19 0 -25
29 -38 41 -19 7 11 9 10 9 -4 0 -23 -26 -33 -45 -17 -18 15 -20 61 -3 78 18
18 42 10 46 -13z m81 11 c17 -20 10 -67 -11 -79 -23 -15 -48 8 -48 42 0 45 35
66 59 37z m77 -41 c1 -30 0 -36 -3 -15 -2 19 -6 41 -9 49 -8 24 -33 -7 -37
-47 -3 -31 -4 -28 -5 14 -2 50 -1 51 26 50 26 -1 27 -4 28 -51z m-306 5 c0 -5
-9 -10 -20 -10 -11 0 -20 5 -20 10 0 6 9 10 20 10 11 0 20 -4 20 -10z"/>
<path d="M874 1275 c-4 -9 -2 -21 4 -27 15 -15 44 -1 40 19 -4 23 -36 29 -44
8z"/>
<path d="M954 1316 c-10 -26 1 -71 18 -74 20 -4 32 29 24 64 -7 26 -33 33 -42
10z"/>
<path d="M1194 1275 c-4 -9 -2 -21 4 -27 15 -15 44 -1 40 19 -4 23 -36 29 -44
8z"/>
<path d="M1284 1316 c-10 -26 1 -71 18 -74 20 -4 32 29 24 64 -7 26 -33 33
-42 10z"/>
<path d="M1614 1286 c-9 -24 4 -48 23 -44 24 4 24 52 0 56 -9 2 -20 -4 -23
-12z"/>
</g>
</svg>
